<?xml version="1.0" encoding="UTF-8"?>
<svg version="1.1" xmlns="http://www.w3.org/2000/svg" width="139" height="131">
<path d="M0 0 C45.87 0 91.74 0 139 0 C139 43.23 139 86.46 139 131 C93.13 131 47.26 131 0 131 C0 87.77 0 44.54 0 0 Z " fill="#F1A930" transform="translate(0,0)"/>
<path d="M0 0 C21.12 0 42.24 0 64 0 C61.54131358 1.22934321 59.06500184 2.42499916 56.5625 3.5625 C51.90187588 6.2877802 50.30917226 10.28183534 48 15 C47.12321935 16.60642341 46.24607709 18.21265786 45.36352539 19.81591797 C41.21085093 27.41565067 37.47593096 35.19664893 33.78637695 43.02929688 C30.76254959 49.41253332 27.63538714 55.73185441 24.43359375 62.02734375 C24.03354126 62.81656723 23.63348877 63.60579071 23.22131348 64.41893005 C19.94255481 70.88724369 19.94255481 70.88724369 18.36651611 73.94662476 C9.4303977 91.06876228 9.4303977 91.06876228 6.5625 109.9375 C6.56378906 111.14277344 6.56507813 112.34804687 6.56640625 113.58984375 C7.04277589 117.33642662 8.04462267 119.78490843 10 123 C14.81265507 126.57864095 19.99633835 127.6101378 25.91796875 127.5234375 C43.44278109 124.54710689 65.99604333 107.50761918 78 95 C76.845 95.61875 75.69 96.2375 74.5 96.875 C66.26467942 100.93507064 59.05953969 101.27178619 50 101 C51.61492644 95.67417876 53.86205961 90.760963 56.25 85.75 C56.84953491 84.49062622 56.84953491 84.49062622 57.46118164 83.20581055 C63.75184208 70.14273257 63.75184208 70.14273257 67 66 C67.66 66 68.32 66 69 66 C69.4846875 67.11375 69.969375 68.2275 70.46875 69.375 C74.71216765 79.06171297 79.18535576 88.57796998 83.99121094 97.99707031 C85.03978016 100.07898268 86.05803755 102.17365738 87.0703125 104.2734375 C93.100678 117.84690537 93.100678 117.84690537 103.9453125 127.37890625 C109.40121562 129.02812411 114.94269087 128.65989161 120.3125 126.9375 C124.31771387 124.05002023 127.77620991 120.44758019 130 116 C131.21906156 105.24615031 128.82033873 97.69401191 123.82421875 88.31640625 C123.1754116 87.04760182 122.52921502 85.77745954 121.88545227 84.50608826 C120.19287714 81.17952942 118.46786162 77.87096393 116.73431396 74.56561279 C115.01476027 71.27519051 113.3231878 67.9705001 111.63085938 64.66601562 C109.64229943 60.78550451 107.65220258 56.90590055 105.64816284 53.03335571 C101.13496707 44.30119341 96.79690303 35.49714556 92.64006042 26.58900452 C86.22849614 11.2998229 86.22849614 11.2998229 73.625 1.6875 C72.75875 1.460625 71.8925 1.23375 71 1 C71 0.67 71 0.34 71 0 C93.44 0 115.88 0 139 0 C139 42.9 139 85.8 139 130 C93.13 130 47.26 130 0 130 C0 87.1 0 44.2 0 0 Z " fill="#E4E4E4" transform="translate(0,1)"/>
<path d="M0 0 C7.73175709 2.76904789 13.81585422 7.17849857 19.20703125 13.33984375 C20.99686471 17.24493494 20.47697293 19.15912588 19.58203125 23.33984375 C18.46941447 25.91190298 17.33108976 28.31507825 16.01953125 30.77734375 C15.2991717 32.1717162 14.57912968 33.56625273 13.859375 34.9609375 C13.4866748 35.67491699 13.11397461 36.38889648 12.72998047 37.12451172 C10.80401751 40.84126796 8.94647428 44.59196291 7.08203125 48.33984375 C6.40525945 49.69416614 5.7282054 51.04834755 5.05078125 52.40234375 C4.56609375 53.37171875 4.08140625 54.34109375 3.58203125 55.33984375 C12.72057551 54.88448673 20.84163907 53.71003984 29.08203125 49.58984375 C29.90703125 49.17734375 30.73203125 48.76484375 31.58203125 48.33984375 C32.24203125 48.66984375 32.90203125 48.99984375 33.58203125 49.33984375 C-5.49900923 83.54485124 -5.49900923 83.54485124 -25.05859375 82.6640625 C-30.59626004 81.9030918 -34.8320897 79.72258481 -38.41796875 75.33984375 C-40.70559868 71.7556149 -40.74888212 68.60379979 -40.79296875 64.40234375 C-40.82132813 63.19707031 -40.8496875 61.99179688 -40.87890625 60.75 C-40.04538131 48.13885667 -33.46250418 36.55690964 -27.90087891 25.48901367 C-26.5344078 22.76024802 -25.19644669 20.01865919 -23.859375 17.27539062 C-22.98736455 15.52389843 -22.11372441 13.77321645 -21.23828125 12.0234375 C-20.64734177 10.80315102 -20.64734177 10.80315102 -20.04446411 9.55821228 C-15.63484621 0.91595552 -9.6186403 -2.62609081 0 0 Z " fill="#4E0270" transform="translate(46.41796875,46.66015625)"/>
<path d="M0 0 C2.25749 2.09055661 3.74466477 4.07265108 5.17651367 6.7902832 C5.57670212 7.54569901 5.97689056 8.30111481 6.38920593 9.079422 C8.19229816 12.56410938 9.99213504 16.05010724 11.77124023 19.54711914 C12.70856011 21.37732467 13.65796832 23.20139405 14.61987305 25.01879883 C25.25676787 45.12170549 25.25676787 45.12170549 23 57 C21.3125 60.5625 21.3125 60.5625 19 63 C17.7934375 64.36125 17.7934375 64.36125 16.5625 65.75 C11.67704962 70.03966375 7.01962626 70.45246127 0.71484375 70.30859375 C-5.40755782 69.61266609 -9.59124989 66.14496989 -13.390625 61.45703125 C-16.8164551 56.22681977 -19.4397367 50.51745603 -22.09521484 44.86669922 C-22.93621508 43.13159727 -23.86541034 41.44000869 -24.80078125 39.75390625 C-26 37 -26 37 -25.98046875 34.86328125 C-24.58683887 32.21482925 -22.71653112 30.95189354 -20.3125 29.1875 C-10.61830654 21.6521553 -3.91050935 11.73152804 0 0 Z " fill="#353534" transform="translate(108,60)"/>
<path d="M0 0 C0.46148437 0.36351563 0.92296875 0.72703125 1.3984375 1.1015625 C15.97134941 12.33364876 29.53937129 17.38210404 48 16 C52.90327396 15.0919863 57.05128147 13.47435927 61.5 11.25 C62.7375 10.63125 62.7375 10.63125 64 10 C64.99 10.495 64.99 10.495 66 11 C26.91895952 45.20500749 26.91895952 45.20500749 7.359375 44.32421875 C1.82170871 43.56324805 -2.41412095 41.38274106 -6 37 C-9.47971824 31.54802269 -8.66120557 24.22989101 -8 18 C-6.70372335 12.15452604 -5.03950086 6.20544438 -2 1 C-1.34 0.67 -0.68 0.34 0 0 Z " fill="#353535" transform="translate(14,85)"/>
</svg>
